<svg xmlns:xlink="http://www.w3.org/1999/xlink" xmlns="http://www.w3.org/2000/svg" viewBox="0 0 20 20" class="Polaris-Icon__Svg_375hu" focusable="false" aria-hidden="true" width="20"  height="20" ><path d="M7.75 6.06v7.69a.75.75 0 0 1-1.5 0v-7.69l-1.72 1.72a.75.75 0 0 1-1.06-1.06l3-3a.75.75 0 0 1 1.06 0l3 3a.75.75 0 1 1-1.06 1.06l-1.72-1.72Z" fill="#4A4A4A"></path><path d="M13.75 6.25a.75.75 0 0 0-1.5 0v7.69l-1.72-1.72a.75.75 0 1 0-1.06 1.06l3 3a.75.75 0 0 0 1.06 0l3-3a.75.75 0 1 0-1.06-1.06l-1.72 1.72v-7.69Z" fill="#4A4A4A"></path></svg>