<svg xmlns:xlink="http://www.w3.org/1999/xlink" xmlns="http://www.w3.org/2000/svg" viewBox="0 0 20 20" class="Polaris-Icon__Svg_375hu" focusable="false" aria-hidden="true" width="20"  height="20" ><path d="M3 6a.75.75 0 0 1 .75-.75h12.5a.75.75 0 0 1 0 1.5h-12.5a.75.75 0 0 1-.75-.75Z" fill="#4A4A4A"></path><path d="M6.75 14a.75.75 0 0 1 .75-.75h5a.75.75 0 0 1 0 1.5h-5a.75.75 0 0 1-.75-.75Z" fill="#4A4A4A"></path><path d="M5.5 9.25a.75.75 0 0 0 0 1.5h9a.75.75 0 0 0 0-1.5h-9Z" fill="#4A4A4A"></path></svg>